<svg width="10" height="6" viewBox="0 0 10 6" fill="none" xmlns="http://www.w3.org/2000/svg">
<path d="M9.38574 1.1249C9.38574 1.19938 9.35645 1.26527 9.29785 1.32256L5.20215 5.32725C5.14355 5.38454 5.07617 5.41318 5 5.41318C4.92383 5.41318 4.85645 5.38454 4.79785 5.32725L0.702148 1.32256C0.643555 1.26527 0.614258 1.19938 0.614258 1.1249C0.614258 1.05042 0.643555 0.984538 0.702148 0.927246L1.1416 0.497559C1.2002 0.440267 1.26758 0.411621 1.34375 0.411621C1.41992 0.411621 1.4873 0.440267 1.5459 0.497559L5 3.8749L8.4541 0.497559C8.5127 0.440267 8.58008 0.411621 8.65625 0.411621C8.73242 0.411621 8.7998 0.440267 8.8584 0.497559L9.29785 0.927246C9.35645 0.984538 9.38574 1.05042 9.38574 1.1249Z" fill="#7E8183"/>
</svg>
