<svg width="24" height="25" viewBox="0 0 24 25" fill="none" xmlns="http://www.w3.org/2000/svg">
<path d="M15.5351 3.30821C14.7791 2.55221 13.4631 2.55221 12.7071 3.30821L2.80806 13.2072C2.43336 13.5824 2.2229 14.091 2.2229 14.6212C2.2229 15.1515 2.43336 15.66 2.80806 16.0352L8.46506 21.6922C8.84306 22.0702 9.34506 22.2782 9.87906 22.2782C10.4131 22.2782 10.9151 22.0702 11.2931 21.6922L21.1921 11.7932C21.5701 11.4152 21.7781 10.9132 21.7781 10.3792C21.7781 9.84521 21.5701 9.34321 21.1921 8.96521L15.5351 3.30821ZM9.87906 20.2782V21.2782V20.2782L4.22206 14.6212L14.1211 4.72221L19.7781 10.3792L9.87906 20.2782Z" fill="#63718E"/>
<path d="M9 16.5C9.55228 16.5 10 16.0523 10 15.5C10 14.9477 9.55228 14.5 9 14.5C8.44772 14.5 8 14.9477 8 15.5C8 16.0523 8.44772 16.5 9 16.5Z" fill="#63718E"/>
<path d="M15.707 22.207L14.293 20.793L20.293 14.793L21.707 16.208L15.707 22.207Z" fill="#63718E"/>
<path d="M8.29297 2.79297L9.70697 4.20697L3.70697 10.207L2.29297 8.79197L8.29297 2.79297Z" fill="#63718E"/>
</svg>
