<svg width="24" height="24" viewBox="0 0 24 24" fill="none" xmlns="http://www.w3.org/2000/svg">
<path d="M12 0C5.376 0 0 5.376 0 12C0 18.624 5.376 24 12 24C18.624 24 24 18.624 24 12C24 5.376 18.624 0 12 0Z" fill="#E8F8FF"/>
<path d="M11.9998 3.60001C13.9918 3.60001 15.5998 5.20801 15.5998 7.20001C15.5998 9.19201 13.9918 10.8 11.9998 10.8C10.0078 10.8 8.3998 9.19201 8.3998 7.20001C8.3998 5.20801 10.0078 3.60001 11.9998 3.60001Z" fill="#BAD9E7"/>
<path d="M11.9998 20.64C8.9998 20.64 6.3478 19.104 4.7998 16.776C4.8358 14.388 9.5998 13.08 11.9998 13.08C14.3878 13.08 19.1638 14.388 19.1998 16.776C17.6518 19.104 14.9998 20.64 11.9998 20.64Z" fill="#BAD9E7"/>
</svg>
